<svg width="150" height="92" viewBox="0 0 150 92" fill="none" xmlns="http://www.w3.org/2000/svg">
<path fill-rule="evenodd" clip-rule="evenodd" d="M156.152 69.156C158.722 46.2211 141.881 24.678 123.515 8.45785C120.451 5.75245 117.595 2.53032 113.755 1.27309C109.914 0.0198841 105.265 1.13083 104.21 4.55788C103.333 7.3978 105.07 10.6236 106.127 13.6639C107.533 17.7061 107.75 21.9716 106.745 25.8087C106.087 28.3307 104.655 30.8739 102 31.4834C98.3577 32.3208 94.5477 29.2481 91.6023 26.4562C86.1088 21.2472 80.6171 16.0435 75.1297 10.8362C72.1835 8.04495 69.1663 5.19891 65.5576 3.34102C61.948 1.48219 57.5739 0.748986 54.3422 2.38415C51.1122 4.02121 49.7179 8.48322 52.1007 11.7034C53.0941 13.0445 54.5579 14.0124 55.7171 15.235C56.8754 16.4566 57.7392 18.2143 57.0674 19.5211C56.3919 20.844 54.5256 21.0562 52.8911 20.9886C47.2514 20.763 41.6014 18.899 36.0926 16.9414C30.5787 14.9815 25.0263 12.8907 19.3621 12.1703C13.6952 11.4504 7.78725 12.2658 3.87155 15.6148C-0.0450441 18.9695 -1.34338 25.2335 1.89126 30.0425C5.13727 34.8653 11.4849 36.7836 17.1628 37.7196C25.5832 39.1053 34.0521 39.3426 42.2119 38.4166C43.6838 38.2508 45.274 38.0681 46.683 38.7977C49.2155 40.1069 49.5558 43.5222 48.5159 45.7758C47.3371 48.3279 45.0297 50.1322 43.3037 52.3355C41.5715 54.5371 40.4241 57.6014 41.8506 60.3872C43.8274 64.2492 49.1926 65.0906 53.4314 64.9376C61.9144 64.6338 70.1387 62.9154 77.6307 59.8767C80.3155 58.7879 82.9997 57.5092 86.0534 57.4622C89.1088 57.4171 92.6891 59.0185 93.8533 61.8688C95.0238 64.7241 93.3315 67.6495 90.9291 69.1754C88.5285 70.7049 85.5203 71.2642 82.8146 72.3304C77.7522 74.3209 73.4774 79.0166 74.7353 84.5133C75.5635 88.1288 78.6529 91.2752 82.1608 93.1291C85.6652 94.9842 89.5642 95.7269 93.3708 96.2089C106.677 97.8829 120.076 96.6198 131.532 91.727C142.987 86.835 151.453 80.2874 156.152 69.156Z" fill="#F8CD99"/>
</svg>
