<svg width="127" height="195" viewBox="0 0 127 195" fill="none" xmlns="http://www.w3.org/2000/svg">
<path fill-rule="evenodd" clip-rule="evenodd" d="M126.409 190.425C155.454 170.495 161.472 134.274 159.724 101.831C159.433 96.414 159.959 90.6942 157.154 85.9812C154.345 81.273 147.939 78.1259 142.86 80.4918C138.647 82.4559 136.879 87.1653 134.572 91.0747C131.505 96.2769 126.871 100.615 121.376 103.429C117.766 105.279 113.281 106.446 109.65 104.625C104.672 102.127 103.976 95.6801 103.914 90.2876C103.798 80.2425 103.683 70.1973 103.57 60.1521C103.508 54.7632 103.426 49.2608 101.564 44.1744C99.7032 39.0869 95.7076 34.4011 90.2698 33.0515C84.8332 31.7019 78.1955 34.7651 77.147 40.0595C76.7108 42.2623 77.2244 44.5337 77.1057 46.7732C76.9882 49.0126 75.9334 51.505 73.7013 52.1645C71.4404 52.8334 69.1383 51.3431 67.4086 49.7914C61.4396 44.4462 57.329 37.5009 53.4809 30.5898C49.6316 23.6788 45.8884 16.6011 40.4531 10.7501C35.0215 4.9026 27.5677 0.318458 19.4116 0.0123759C11.2567 -0.291342 2.6619 4.61069 0.740973 12.2202C-1.18746 19.8533 3.62799 27.4853 8.83212 33.5537C16.5496 42.5566 25.6306 50.4828 35.6989 57.0003C37.5136 58.1786 39.482 59.449 40.2044 61.4344C41.5029 65.0081 37.9735 68.6338 34.2516 69.8747C30.0336 71.2822 25.4281 70.9383 21.0001 71.5055C16.5721 72.0728 11.8016 74.0038 10.1944 78.0018C7.96477 83.5479 12.9302 89.2429 17.7819 92.9478C27.5015 100.366 38.5497 106.171 50.2939 110.032C54.5032 111.416 58.93 112.617 62.3544 115.35C65.7801 118.08 67.9035 122.889 65.9326 126.718C63.9617 130.553 58.75 131.851 54.3545 131.15C49.959 130.452 45.9922 128.261 41.7891 126.837C33.9217 124.166 23.8346 124.839 18.9429 131.321C15.7272 135.581 15.5423 141.446 17.297 146.433C19.0504 151.422 22.5036 155.686 26.1617 159.615C38.9433 173.339 55.1844 184.29 73.4263 189.953C91.6658 195.618 108.499 196.96 126.409 190.425Z" fill="#F3AF47"/>
</svg>
